<svg xmlns="http://www.w3.org/2000/svg" viewBox="0 0 80 80"><path d="M20.624 40.95c-7.385-1.253-12.658-1.596-12.658-1.596-1.976-.83-1.983 32.735-.526 36.268 0 0 14.106-1.318 14.37-4.087.265-2.768.78-30.253-1.186-30.586zM73.525 51.074c0-1.513-.78-2.85-1.99-3.765 2.182-1.11 2.418-3.132 1.99-6.824-.405-3.472-2.226-4.933-9.277-4.512-.486-.038-.917-.052-1.24-.037-2.56.115-7.514.756-9.355-3.346-.85-1.893 3.064-10.993-.593-21.64-1.977-5.752-4.525-6.21-6.922-5.932-4.55.527-2.406 6.335-2.322 6.998.446 3.57-.003 6.68-.003 6.68 0 4.352-4.708 11.616-6.706 13.68-3.272 3.383-11.34 10.152-11.34 10.152l.79 27.82s1.188-.034 15.328 3.13c14.14 3.165 23.138-.593 23.138-.593.23-.09.42-.183.63-.273 1.412-.436 2.566-1.277 3.29-2.327.18-.242.31-.48.407-.712.433-.91.57-1.916.31-2.896-.206-.77-.49-1.417-.856-1.946 2.845-1.028 4.464-3.885 3.62-6.496-.372-1.154-1.18-2.05-2.198-2.64 1.942-.788 3.3-2.51 3.3-4.52z"/></svg>